<?xml version="1.0" encoding="utf-8"?>
<!-- Generator: Adobe Illustrator 23.0.1, SVG Export Plug-In . SVG Version: 6.00 Build 0)  -->
<svg version="1.1" id="Layer_1" xmlns="http://www.w3.org/2000/svg" xmlns:xlink="http://www.w3.org/1999/xlink" x="0px" y="0px"
	 viewBox="0 0 512 512" style="enable-background:new 0 0 512 512;" xml:space="preserve">
<style type="text/css">
	.st0{fill:#FFFFFF;}
	.st1{fill:#2B0059;}
</style>
<circle class="st0" cx="256" cy="256" r="247"/>
<path id="XMLID_354_" class="st1" d="M256,77.4c-98.5,0-178.6,80.1-178.6,178.6c0,98.5,80.1,178.6,178.6,178.6
	c98.5,0,178.6-80.1,178.6-178.6C434.6,157.5,354.5,77.4,256,77.4z M223.1,245c0-20.3,12.8-36.8,28.5-36.8h8.8
	c15.7,0,28.5,16.5,28.5,36.8v126.9c0,20.3-12.8,36.8-28.5,36.8h-8.8c-15.8,0-28.5-16.5-28.5-36.8V245z M256,189.5
	c-22.4,0-40.5-18.1-40.5-40.5c0-22.4,18.1-40.5,40.5-40.5c22.4,0,40.5,18.1,40.5,40.5C296.5,171.4,278.4,189.5,256,189.5z"/>
<path id="XMLID_351_" class="st1" d="M256,1.9C115.7,1.9,1.9,115.7,1.9,256c0,140.3,113.8,254.1,254.1,254.1S510.1,396.3,510.1,256
	C510.1,115.7,396.3,1.9,256,1.9z M256,472c-119.1,0-216-96.9-216-216c0-119.1,96.9-216,216-216c119.1,0,216,96.9,216,216
	C472,375.1,375.1,472,256,472z"/>
</svg>
